<?xml version="1.0" standalone="no"?>
<!DOCTYPE svg PUBLIC "-//W3C//DTD SVG 20010904//EN"
 "http://www.w3.org/TR/2001/REC-SVG-20010904/DTD/svg10.dtd">
<svg version="1.0" xmlns="http://www.w3.org/2000/svg"
 width="1130.000000pt" height="807.000000pt" viewBox="0 0 1130.000000 807.000000"
 preserveAspectRatio="xMidYMid meet">

<g transform="translate(0.000000,807.000000) scale(0.100000,-0.100000)"
fill="#333333" stroke="none">
<path d="M0 4035 l0 -4035 1198 0 1197 0 1110 1292 c1332 1549 1636 1903 2603
3028 861 1001 1203 1398 1646 1914 508 592 767 894 855 996 95 110 124 162
141 247 15 75 2 165 -34 234 -13 26 -80 117 -147 202 l-124 156 -4222 0 -4223
1 0 -4035z"/>
</g>
</svg>
